<?xml version="1.0" standalone="no"?><!DOCTYPE svg PUBLIC "-//W3C//DTD SVG 1.1//EN" "http://www.w3.org/Graphics/SVG/1.1/DTD/svg11.dtd"><svg t="1706711924297" class="icon" viewBox="0 0 1024 1024" version="1.1" xmlns="http://www.w3.org/2000/svg" p-id="7693" xmlns:xlink="http://www.w3.org/1999/xlink" width="200" height="200"><path d="M511.702003 0C230.045029 0 0.303497 207.661769 0.303497 463.063026c0 115.168763 46.5455 224.967583 131.878583 310.299666V994.749314c0 11.337878 6.562929 21.481769 16.707821 26.255718 4.176955 1.789981 8.35391 2.983968 12.530865 2.983968 6.563929 0 13.127859-2.386974 17.901808-6.563929L345.213792 883.160513c12.531865-10.143891 14.321846-28.045699 4.176955-40.577564-10.143891-12.530865-28.045699-14.321846-40.577564-4.176955L189.467465 934.479962V761.427821c0-7.757917-2.983968-15.514833-8.950904-20.885776-78.769154-75.784186-122.329686-174.245128-122.329686-277.479019 0-223.177603 203.484814-405.180647 453.515128-405.180648 250.029314 0 453.515128 182.003045 453.515128 405.180648s-203.485814 405.179647-453.515128 405.179647h-3.579961c-16.112827 0-28.643692 12.530865-28.643693 28.642692 0 16.111827 12.530865 29.239686 28.642693 29.239686h4.176955c282.253968 0 511.398506-207.661769 511.398506-463.062025C1023.696503 207.661769 793.954971 0 511.702003 0zM231.238016 415.920532c-12.530865 12.531865-19.691788 29.836679-19.691788 47.739487 0 17.304814 7.160923 35.206622 19.691788 47.737487 12.531865 12.531865 29.836679 19.692788 47.739487 19.692789 17.304814 0 35.206622-7.160923 47.737487-19.692789 12.531865-12.530865 19.692788-29.836679 19.692789-47.738487 0-17.304814-7.160923-35.206622-19.692789-47.738487-12.530865-12.530865-29.836679-19.691788-47.738487-19.691788-17.901808 0-35.206622 7.159923-47.738487 19.691788z m328.202474 95.476974c12.530865-12.530865 19.691788-29.836679 19.691789-47.738487 0-17.304814-7.160923-35.206622-19.691789-47.738487-12.531865-12.530865-29.836679-19.691788-47.739487-19.691788-17.304814 0-35.206622 7.159923-47.737487 19.691788-12.531865 12.531865-19.692788 29.836679-19.692788 47.739487 0 17.304814 7.160923 35.206622 19.692788 47.737487 12.530865 12.531865 29.836679 19.692788 47.738487 19.692789 17.901808 0 35.206622-7.757917 47.738487-19.692789z m233.321494 0c12.530865-12.530865 19.691788-29.836679 19.691788-47.738487 0-17.304814-7.160923-35.206622-19.691788-47.738487-12.531865-12.530865-29.836679-19.691788-47.739487-19.691788-17.304814 0-35.206622 7.159923-47.737487 19.691788-12.531865 12.531865-19.692788 29.836679-19.692789 47.739487 0 17.304814 7.160923 35.206622 19.692789 47.737487 12.530865 12.531865 29.836679 19.692788 47.738487 19.692789 17.901808 0 35.206622-7.757917 47.738487-19.692789z" fill="#707070" p-id="7694"></path></svg>