<?xml version="1.0" standalone="no"?><!DOCTYPE svg PUBLIC "-//W3C//DTD SVG 1.1//EN" "http://www.w3.org/Graphics/SVG/1.1/DTD/svg11.dtd"><svg t="1706801729650" class="icon" viewBox="0 0 1024 1024" version="1.1" xmlns="http://www.w3.org/2000/svg" p-id="5064" xmlns:xlink="http://www.w3.org/1999/xlink" width="200" height="200"><path d="M512.199922 0.99961C229.910191 0.99961 0.799688 229.910191 0.799688 511.900039s229.110504 510.800469 511.400234 510.800469c282.289731 0 511.400234-228.910582 511.400234-510.800469C1023.600156 229.910191 794.489652 0.99961 512.199922 0.99961z m216.815306 655.443967c19.992191 19.89223 19.992191 52.579461 0 72.071847-19.992191 19.392425-52.679422 19.89223-72.071847 0L512.199922 583.871925 367.456462 728.415463c-19.992191 19.89223-52.679422 19.89223-72.571651 0-19.992191-19.89223-19.992191-52.579461 0-72.071847L439.62827 511.800078 295.384615 367.25654c-19.992191-19.89223-19.992191-52.579461 0-72.571651 19.89223-19.89223 52.679422-19.89223 72.571652 0l144.243655 144.543537 144.743459-144.543537c19.992191-19.89223 52.679422-19.89223 72.071847 0 19.392425 19.89223 19.992191 52.579461 0 72.571651L584.271769 511.900039l144.743459 144.543538z m0 0" fill="#E83C39" p-id="5065"></path></svg>