<?xml version="1.0" standalone="no"?><!DOCTYPE svg PUBLIC "-//W3C//DTD SVG 1.1//EN" "http://www.w3.org/Graphics/SVG/1.1/DTD/svg11.dtd"><svg t="1706801823031" class="icon" viewBox="0 0 1024 1024" version="1.1" xmlns="http://www.w3.org/2000/svg" p-id="13289" xmlns:xlink="http://www.w3.org/1999/xlink" width="200" height="200"><path d="M 512 0 C 230.4 0 0 230.4 0 512 s 230.4 512 512 512 s 512 -230.4 512 -512 S 793.6 0 512 0 Z m 0 938.667 c -234.667 0 -426.667 -192 -426.667 -426.667 S 277.333 85.333 512 85.333 s 426.667 192 426.667 426.667 s -192 426.667 -426.667 426.667 Z m 0 -725.334 C 345.6 213.333 213.333 345.6 213.333 512 S 345.6 810.667 512 810.667 S 810.667 678.4 810.667 512 S 674.133 213.333 512 213.333 Z" fill="#4b90d3" p-id="13290"></path></svg>